<svg width="58" height="80" viewBox="0 0 58 80" fill="none" xmlns="http://www.w3.org/2000/svg">
<path d="M0 25.7191H10.7483V27.7274H6.52711V38.9964H4.20264V27.7274H0V25.7191Z" fill="white"/>
<path d="M9.9111 29.3824H11.9008V31.242H11.938C12 30.9816 12.1178 30.7275 12.2914 30.4796C12.4773 30.2316 12.6943 30.0085 12.9422 29.8101C13.2025 29.5994 13.4877 29.432 13.7976 29.308C14.1075 29.1841 14.4237 29.1221 14.746 29.1221C14.9939 29.1221 15.1613 29.1283 15.2481 29.1407C15.3473 29.1531 15.4464 29.1655 15.5456 29.1779V31.2234C15.3968 31.1986 15.2419 31.18 15.0807 31.1676C14.932 31.1428 14.7832 31.1304 14.6344 31.1304C14.2749 31.1304 13.934 31.2048 13.6117 31.3536C13.3017 31.4899 13.029 31.7007 12.7934 31.9858C12.5579 32.2586 12.3719 32.5995 12.2356 33.0086C12.0992 33.4177 12.031 33.8888 12.031 34.4219V38.9964H9.9111V29.3824Z" fill="white"/>
<path d="M16.1325 25.7191H18.2525V27.7274H16.1325V25.7191ZM16.1325 29.3824H18.2525V38.9964H16.1325V29.3824Z" fill="white"/>
<path d="M20.2461 29.3824H22.2545V30.6841H22.2917C22.5892 30.1262 23.0045 29.7295 23.5376 29.494C24.0706 29.246 24.6471 29.1221 25.267 29.1221C26.0232 29.1221 26.6803 29.2584 27.2381 29.5312C27.8084 29.7915 28.2795 30.1572 28.6514 30.6283C29.0233 31.087 29.3023 31.6263 29.4882 32.2462C29.6742 32.866 29.7671 33.5293 29.7671 34.2359C29.7671 34.8806 29.6804 35.5066 29.5068 36.1141C29.3456 36.7215 29.0915 37.2608 28.7444 37.7319C28.4097 38.1906 27.982 38.5625 27.4613 38.8476C26.9406 39.1204 26.3269 39.2567 25.6203 39.2567C25.3104 39.2567 25.0004 39.2258 24.6905 39.1638C24.3806 39.1142 24.083 39.0274 23.7979 38.9034C23.5128 38.7795 23.2462 38.6245 22.9983 38.4385C22.7627 38.2402 22.5644 38.0108 22.4032 37.7505H22.366V42.5482H20.2461V29.3824ZM27.6472 34.1987C27.6472 33.7648 27.5914 33.3433 27.4799 32.9342C27.3683 32.5251 27.2009 32.1656 26.9778 31.8556C26.7546 31.5333 26.4757 31.2792 26.141 31.0932C25.8062 30.8949 25.4219 30.7957 24.988 30.7957C24.0954 30.7957 23.4198 31.1056 22.9611 31.7255C22.5148 32.3453 22.2917 33.1697 22.2917 34.1987C22.2917 34.6822 22.3474 35.1347 22.459 35.5562C22.583 35.9653 22.7627 36.3186 22.9983 36.6162C23.2338 36.9137 23.5128 37.1492 23.8351 37.3228C24.1698 37.4964 24.5541 37.5831 24.988 37.5831C25.4715 37.5831 25.8806 37.484 26.2154 37.2856C26.5501 37.0872 26.8228 36.8331 27.0336 36.5232C27.2567 36.2008 27.4117 35.8413 27.4985 35.4446C27.5976 35.0355 27.6472 34.6202 27.6472 34.1987Z" fill="white"/>
<path d="M31.2423 25.7191H33.3622V38.9964H31.2423V25.7191Z" fill="white"/>
<path d="M41.9016 33.3433C41.8768 33.0086 41.8024 32.6863 41.6784 32.3763C41.5669 32.0664 41.4057 31.7999 41.195 31.5767C40.9966 31.3412 40.7487 31.1552 40.4511 31.0188C40.166 30.8701 39.8437 30.7957 39.4841 30.7957C39.1122 30.7957 38.7713 30.8639 38.4614 31.0002C38.1639 31.1242 37.9035 31.304 37.6804 31.5395C37.4696 31.7627 37.296 32.0292 37.1597 32.3391C37.0357 32.6491 36.9675 32.9838 36.9551 33.3433H41.9016ZM36.9551 34.738C36.9551 35.1099 37.0047 35.4694 37.1039 35.8165C37.2155 36.1637 37.3766 36.4674 37.5874 36.7277C37.7981 36.9881 38.0647 37.1988 38.387 37.36C38.7093 37.5088 39.0936 37.5831 39.5399 37.5831C40.1598 37.5831 40.6557 37.453 41.0276 37.1926C41.4119 36.9199 41.697 36.517 41.883 35.9839H43.8913C43.7798 36.5046 43.5876 36.9695 43.3149 37.3786C43.0421 37.7877 42.7136 38.1348 42.3293 38.4199C41.945 38.6927 41.5111 38.8972 41.0276 39.0336C40.5565 39.1824 40.0606 39.2567 39.5399 39.2567C38.7837 39.2567 38.1143 39.1328 37.5316 38.8848C36.9489 38.6369 36.453 38.2898 36.0439 37.8435C35.6472 37.3972 35.3435 36.8641 35.1327 36.2442C34.9344 35.6244 34.8352 34.9425 34.8352 34.1987C34.8352 33.5169 34.9406 32.8722 35.1513 32.2648C35.3745 31.6449 35.6844 31.1056 36.0811 30.6469C36.4902 30.1758 36.9799 29.8039 37.5502 29.5312C38.1205 29.2584 38.7651 29.1221 39.4841 29.1221C40.2404 29.1221 40.916 29.2832 41.5111 29.6056C42.1185 29.9155 42.6206 30.3308 43.0173 30.8515C43.4141 31.3722 43.6992 31.9734 43.8727 32.6553C44.0587 33.3247 44.1083 34.019 44.0215 34.738H36.9551Z" fill="white"/>
<path d="M1.26451 44.3148H7.12217C8.06436 44.3148 8.83298 44.4512 9.42804 44.7239C10.0231 44.9966 10.4818 45.3376 10.8041 45.7467C11.1265 46.1558 11.3434 46.6021 11.455 47.0856C11.579 47.569 11.6409 48.0153 11.6409 48.4244C11.6409 48.8336 11.579 49.2799 11.455 49.7633C11.3434 50.2344 11.1265 50.6745 10.8041 51.0836C10.4818 51.4927 10.0231 51.8337 9.42804 52.1064C8.83298 52.3667 8.06436 52.4969 7.12217 52.4969H3.58898V57.5921H1.26451V44.3148ZM3.58898 50.6001H6.992C7.25234 50.6001 7.51888 50.563 7.79162 50.4886C8.06436 50.4142 8.3123 50.2964 8.53545 50.1353C8.771 49.9617 8.95695 49.7385 9.09332 49.4658C9.24209 49.1807 9.31647 48.8274 9.31647 48.4059C9.31647 47.972 9.25448 47.6124 9.13051 47.3273C9.00654 47.0422 8.83918 46.819 8.62843 46.6579C8.41768 46.4843 8.17593 46.3665 7.90319 46.3045C7.63046 46.2425 7.33912 46.2116 7.02919 46.2116H3.58898V50.6001Z" fill="white"/>
<path d="M19.5998 51.939C19.575 51.6043 19.5006 51.282 19.3766 50.9721C19.265 50.6621 19.1039 50.3956 18.8931 50.1724C18.6948 49.9369 18.4468 49.7509 18.1493 49.6146C17.8642 49.4658 17.5418 49.3914 17.1823 49.3914C16.8104 49.3914 16.4695 49.4596 16.1596 49.596C15.862 49.7199 15.6017 49.8997 15.3785 50.1353C15.1678 50.3584 14.9942 50.6249 14.8579 50.9349C14.7339 51.2448 14.6657 51.5795 14.6533 51.939H19.5998ZM14.6533 53.3337C14.6533 53.7056 14.7029 54.0652 14.8021 54.4123C14.9136 54.7594 15.0748 55.0631 15.2856 55.3235C15.4963 55.5838 15.7629 55.7946 16.0852 55.9557C16.4075 56.1045 16.7918 56.1789 17.2381 56.1789C17.858 56.1789 18.3539 56.0487 18.7258 55.7884C19.1101 55.5156 19.3952 55.1127 19.5812 54.5796H21.5895C21.4779 55.1003 21.2858 55.5652 21.013 55.9743C20.7403 56.3834 20.4118 56.7305 20.0275 57.0157C19.6432 57.2884 19.2093 57.493 18.7258 57.6293C18.2547 57.7781 17.7588 57.8525 17.2381 57.8525C16.4819 57.8525 15.8124 57.7285 15.2298 57.4806C14.6471 57.2326 14.1512 56.8855 13.7421 56.4392C13.3454 55.9929 13.0417 55.4598 12.8309 54.84C12.6326 54.2201 12.5334 53.5383 12.5334 52.7944C12.5334 52.1126 12.6388 51.4679 12.8495 50.8605C13.0727 50.2406 13.3826 49.7014 13.7793 49.2427C14.1884 48.7716 14.6781 48.3997 15.2484 48.1269C15.8186 47.8542 16.4633 47.7178 17.1823 47.7178C17.9386 47.7178 18.6142 47.879 19.2093 48.2013C19.8167 48.5112 20.3188 48.9265 20.7155 49.4472C21.1122 49.9679 21.3974 50.5692 21.5709 51.251C21.7569 51.9204 21.8065 52.6147 21.7197 53.3337H14.6533Z" fill="white"/>
<path d="M31.0113 55.4536C31.0113 55.714 31.0423 55.8999 31.1043 56.0115C31.1787 56.1231 31.315 56.1789 31.5134 56.1789C31.5754 56.1789 31.6498 56.1789 31.7365 56.1789C31.8233 56.1789 31.9225 56.1665 32.0341 56.1417V57.6107C31.9597 57.6355 31.8605 57.6603 31.7365 57.6851C31.625 57.7223 31.5072 57.7533 31.3832 57.7781C31.2593 57.8029 31.1353 57.8215 31.0113 57.8339C30.8873 57.8463 30.782 57.8525 30.6952 57.8525C30.2613 57.8525 29.9018 57.7657 29.6166 57.5921C29.3315 57.4186 29.1455 57.1149 29.0588 56.681C28.6373 57.0901 28.1166 57.3876 27.4967 57.5735C26.8893 57.7595 26.3004 57.8525 25.7301 57.8525C25.2962 57.8525 24.8809 57.7905 24.4842 57.6665C24.0875 57.555 23.7342 57.3876 23.4243 57.1644C23.1267 56.9289 22.885 56.6376 22.699 56.2904C22.5255 55.9309 22.4387 55.5156 22.4387 55.0445C22.4387 54.4495 22.5441 53.966 22.7548 53.5941C22.978 53.2221 23.2631 52.9308 23.6102 52.7201C23.9697 52.5093 24.3664 52.3605 24.8003 52.2738C25.2466 52.1746 25.6929 52.1002 26.1392 52.0506C26.5235 51.9762 26.8893 51.9266 27.2364 51.9018C27.5835 51.8647 27.8872 51.8089 28.1476 51.7345C28.4203 51.6601 28.6311 51.5485 28.7798 51.3998C28.941 51.2386 29.0216 51.0031 29.0216 50.6931C29.0216 50.4204 28.9534 50.1972 28.817 50.0237C28.693 49.8501 28.5319 49.7199 28.3335 49.6332C28.1476 49.534 27.9368 49.472 27.7013 49.4472C27.4657 49.41 27.2426 49.3914 27.0318 49.3914C26.4368 49.3914 25.9471 49.5154 25.5628 49.7633C25.1784 50.0113 24.9615 50.3956 24.9119 50.9163H22.792C22.8292 50.2964 22.978 49.7819 23.2383 49.3728C23.4986 48.9637 23.8272 48.6352 24.2239 48.3873C24.633 48.1393 25.0917 47.9657 25.6 47.8666C26.1082 47.7674 26.6289 47.7178 27.162 47.7178C27.6331 47.7178 28.098 47.7674 28.5567 47.8666C29.0154 47.9657 29.4245 48.1269 29.784 48.3501C30.1559 48.5732 30.4534 48.8645 30.6766 49.2241C30.8997 49.5712 31.0113 49.9989 31.0113 50.5072V55.4536ZM28.8914 52.7759C28.5691 52.9866 28.1724 53.1168 27.7013 53.1664C27.2302 53.2036 26.7591 53.2655 26.288 53.3523C26.0648 53.3895 25.8479 53.4453 25.6371 53.5197C25.4264 53.5817 25.2404 53.6746 25.0793 53.7986C24.9181 53.9102 24.7879 54.0652 24.6888 54.2635C24.602 54.4495 24.5586 54.6788 24.5586 54.9515C24.5586 55.1871 24.6268 55.3854 24.7631 55.5466C24.8995 55.7078 25.0607 55.8379 25.2466 55.9371C25.445 56.0239 25.6557 56.0859 25.8789 56.1231C26.1144 56.1603 26.3252 56.1789 26.5111 56.1789C26.7467 56.1789 27.0008 56.1479 27.2736 56.0859C27.5463 56.0239 27.8004 55.9185 28.036 55.7698C28.2839 55.621 28.4885 55.435 28.6497 55.2119C28.8108 54.9763 28.8914 54.6912 28.8914 54.3565V52.7759Z" fill="white"/>
<path d="M32.9762 44.3148H35.0961V51.8647L38.9269 47.9781H41.5303L37.8483 51.5113L41.8836 57.5921H39.2988L36.3606 52.9246L35.0961 54.1519V57.5921H32.9762V44.3148Z" fill="white"/>
<path d="M44.1357 54.5052C44.1977 55.1251 44.4332 55.559 44.8423 55.807C45.2514 56.0549 45.7411 56.1789 46.3114 56.1789C46.5098 56.1789 46.7329 56.1665 46.9809 56.1417C47.2412 56.1045 47.4829 56.0425 47.7061 55.9557C47.9292 55.8689 48.109 55.745 48.2454 55.5838C48.3941 55.4102 48.4623 55.1871 48.4499 54.9144C48.4375 54.6416 48.3383 54.4185 48.1524 54.2449C47.9664 54.0714 47.7247 53.935 47.4271 53.8358C47.142 53.7242 46.8135 53.6313 46.4416 53.5569C46.0697 53.4825 45.6915 53.4019 45.3072 53.3151C44.9105 53.2283 44.5262 53.123 44.1543 52.999C43.7948 52.875 43.4663 52.7077 43.1687 52.4969C42.8836 52.2862 42.6542 52.0196 42.4807 51.6973C42.3071 51.3626 42.2203 50.9535 42.2203 50.47C42.2203 49.9493 42.3443 49.5154 42.5923 49.1683C42.8526 48.8088 43.1749 48.5236 43.5592 48.3129C43.9559 48.0897 44.3898 47.9348 44.8609 47.848C45.3444 47.7612 45.8031 47.7178 46.237 47.7178C46.7329 47.7178 47.204 47.7736 47.6503 47.8852C48.109 47.9843 48.5181 48.1517 48.8776 48.3873C49.2495 48.6228 49.5533 48.9327 49.7888 49.317C50.0368 49.689 50.1917 50.1415 50.2537 50.6745H48.0408C47.9416 50.1662 47.7061 49.8253 47.3342 49.6518C46.9747 49.4782 46.5593 49.3914 46.0883 49.3914C45.9395 49.3914 45.7597 49.4038 45.549 49.4286C45.3506 49.4534 45.1585 49.503 44.9725 49.5774C44.7989 49.6394 44.6502 49.7385 44.5262 49.8749C44.4022 49.9989 44.3403 50.1662 44.3403 50.377C44.3403 50.6373 44.427 50.8481 44.6006 51.0093C44.7866 51.1704 45.0221 51.3068 45.3072 51.4184C45.6048 51.5175 45.9395 51.6043 46.3114 51.6787C46.6833 51.7531 47.0676 51.8337 47.4643 51.9204C47.8487 52.0072 48.2268 52.1126 48.5987 52.2366C48.9706 52.3605 49.2991 52.5279 49.5843 52.7387C49.8818 52.9494 50.1173 53.2159 50.2909 53.5383C50.4768 53.8606 50.5698 54.2573 50.5698 54.7284C50.5698 55.2987 50.4397 55.7822 50.1793 56.1789C49.919 56.5756 49.5781 56.8979 49.1565 57.1458C48.7474 57.3938 48.2887 57.5735 47.7805 57.6851C47.2722 57.7967 46.7701 57.8525 46.2742 57.8525C45.6668 57.8525 45.1027 57.7843 44.582 57.6479C44.0737 57.5116 43.6274 57.307 43.2431 57.0343C42.8712 56.7491 42.5737 56.402 42.3505 55.9929C42.1398 55.5714 42.0282 55.0755 42.0158 54.5052H44.1357Z" fill="white"/>
<path d="M1.26451 62.9105H3.58898V74.1795H10.3392V76.1879H1.26451V62.9105Z" fill="white"/>
<path d="M11.3289 62.9105H13.4488V64.9189H11.3289V62.9105ZM11.3289 66.5739H13.4488V76.1879H11.3289V66.5739Z" fill="white"/>
<path d="M15.4425 62.9105H17.5624V67.8198H17.5996C17.7483 67.5843 17.9281 67.3735 18.1388 67.1875C18.3496 67.0016 18.5789 66.8466 18.8269 66.7227C19.0872 66.5863 19.3538 66.4871 19.6265 66.4251C19.9116 66.3507 20.1906 66.3135 20.4633 66.3135C21.2195 66.3135 21.8766 66.4499 22.4345 66.7227C23.0047 66.983 23.4758 67.3487 23.8477 67.8198C24.2197 68.2785 24.4986 68.8178 24.6845 69.4376C24.8705 70.0575 24.9635 70.7207 24.9635 71.4274C24.9635 72.072 24.8767 72.6981 24.7031 73.3055C24.542 73.913 24.2878 74.4523 23.9407 74.9234C23.606 75.3821 23.1783 75.754 22.6576 76.0391C22.1369 76.3118 21.5233 76.4482 20.8166 76.4482C20.4943 76.4482 20.1658 76.4234 19.8311 76.3738C19.5087 76.3366 19.1988 76.2561 18.9013 76.1321C18.6037 76.0081 18.331 75.847 18.0831 75.6486C17.8475 75.4502 17.6492 75.1899 17.488 74.8676H17.4508V76.1879H15.4425V62.9105ZM22.8436 71.3902C22.8436 70.9563 22.7878 70.5348 22.6762 70.1257C22.5646 69.7166 22.3973 69.357 22.1741 69.0471C21.951 68.7248 21.672 68.4706 21.3373 68.2847C21.0026 68.0863 20.6183 67.9872 20.1844 67.9872C19.2918 67.9872 18.6161 68.2971 18.1574 68.9169C17.7111 69.5368 17.488 70.3612 17.488 71.3902C17.488 71.8737 17.5438 72.3262 17.6554 72.7477C17.7793 73.1568 17.9591 73.5101 18.1946 73.8076C18.4302 74.1052 18.7091 74.3407 19.0314 74.5143C19.3662 74.6878 19.7505 74.7746 20.1844 74.7746C20.6679 74.7746 21.077 74.6754 21.4117 74.4771C21.7464 74.2787 22.0192 74.0246 22.2299 73.7146C22.4531 73.3923 22.608 73.0328 22.6948 72.6361C22.794 72.227 22.8436 71.8117 22.8436 71.3902Z" fill="white"/>
<path d="M26.3829 66.5739H28.3726V68.4335H28.4098C28.4718 68.1731 28.5896 67.919 28.7631 67.671C28.9491 67.4231 29.166 67.1999 29.414 67.0016C29.6743 66.7908 29.9594 66.6235 30.2694 66.4995C30.5793 66.3755 30.8954 66.3135 31.2178 66.3135C31.4657 66.3135 31.6331 66.3197 31.7198 66.3321C31.819 66.3445 31.9182 66.3569 32.0174 66.3693V68.4149C31.8686 68.3901 31.7136 68.3715 31.5525 68.3591C31.4037 68.3343 31.2549 68.3219 31.1062 68.3219C30.7467 68.3219 30.4057 68.3963 30.0834 68.545C29.7735 68.6814 29.5007 68.8922 29.2652 69.1773C29.0297 69.45 28.8437 69.7909 28.7073 70.2C28.571 70.6092 28.5028 71.0803 28.5028 71.6133V76.1879H26.3829V66.5739Z" fill="white"/>
<path d="M40.6005 74.0494C40.6005 74.3097 40.6315 74.4957 40.6935 74.6072C40.7678 74.7188 40.9042 74.7746 41.1026 74.7746C41.1645 74.7746 41.2389 74.7746 41.3257 74.7746C41.4125 74.7746 41.5117 74.7622 41.6232 74.7374V76.2065C41.5489 76.2313 41.4497 76.2561 41.3257 76.2809C41.2141 76.318 41.0964 76.349 40.9724 76.3738C40.8484 76.3986 40.7244 76.4172 40.6005 76.4296C40.4765 76.442 40.3711 76.4482 40.2843 76.4482C39.8504 76.4482 39.4909 76.3614 39.2058 76.1879C38.9207 76.0143 38.7347 75.7106 38.6479 75.2767C38.2264 75.6858 37.7057 75.9833 37.0859 76.1693C36.4784 76.3552 35.8895 76.4482 35.3193 76.4482C34.8854 76.4482 34.4701 76.3862 34.0734 76.2623C33.6767 76.1507 33.3233 75.9833 33.0134 75.7602C32.7159 75.5246 32.4741 75.2333 32.2882 74.8862C32.1146 74.5267 32.0278 74.1114 32.0278 73.6403C32.0278 73.0452 32.1332 72.5617 32.344 72.1898C32.5671 71.8179 32.8522 71.5265 33.1994 71.3158C33.5589 71.105 33.9556 70.9563 34.3895 70.8695C34.8358 70.7703 35.2821 70.6959 35.7284 70.6463C36.1127 70.572 36.4784 70.5224 36.8255 70.4976C37.1727 70.4604 37.4764 70.4046 37.7367 70.3302C38.0095 70.2558 38.2202 70.1443 38.369 69.9955C38.5301 69.8343 38.6107 69.5988 38.6107 69.2889C38.6107 69.0161 38.5425 68.793 38.4062 68.6194C38.2822 68.4459 38.121 68.3157 37.9227 68.2289C37.7367 68.1297 37.526 68.0677 37.2904 68.0429C37.0549 68.0058 36.8317 67.9872 36.621 67.9872C36.0259 67.9872 35.5362 68.1111 35.1519 68.3591C34.7676 68.607 34.5507 68.9913 34.5011 69.512H32.3812C32.4183 68.8921 32.5671 68.3777 32.8274 67.9686C33.0878 67.5595 33.4163 67.2309 33.813 66.983C34.2221 66.735 34.6808 66.5615 35.1891 66.4623C35.6974 66.3631 36.2181 66.3135 36.7512 66.3135C37.2222 66.3135 37.6871 66.3631 38.1458 66.4623C38.6045 66.5615 39.0136 66.7226 39.3732 66.9458C39.7451 67.1689 40.0426 67.4603 40.2658 67.8198C40.4889 68.1669 40.6005 68.5946 40.6005 69.1029V74.0494ZM38.4806 71.3716C38.1582 71.5823 37.7615 71.7125 37.2904 71.7621C36.8193 71.7993 36.3482 71.8613 35.8772 71.948C35.654 71.9852 35.4371 72.041 35.2263 72.1154C35.0156 72.1774 34.8296 72.2704 34.6684 72.3943C34.5073 72.5059 34.3771 72.6609 34.2779 72.8592C34.1911 73.0452 34.1477 73.2745 34.1477 73.5473C34.1477 73.7828 34.2159 73.9812 34.3523 74.1423C34.4887 74.3035 34.6498 74.4337 34.8358 74.5329C35.0341 74.6196 35.2449 74.6816 35.468 74.7188C35.7036 74.756 35.9143 74.7746 36.1003 74.7746C36.3358 74.7746 36.59 74.7436 36.8627 74.6816C37.1355 74.6196 37.3896 74.5143 37.6252 74.3655C37.8731 74.2167 38.0777 74.0308 38.2388 73.8076C38.4 73.5721 38.4806 73.2869 38.4806 72.9522V71.3716Z" fill="white"/>
<path d="M42.5096 66.5739H44.4993V68.4335H44.5365C44.5985 68.1731 44.7163 67.919 44.8898 67.671C45.0758 67.4231 45.2928 67.1999 45.5407 67.0016C45.801 66.7908 46.0862 66.6235 46.3961 66.4995C46.706 66.3755 47.0222 66.3135 47.3445 66.3135C47.5924 66.3135 47.7598 66.3197 47.8466 66.3321C47.9457 66.3445 48.0449 66.3569 48.1441 66.3693V68.4149C47.9953 68.3901 47.8404 68.3715 47.6792 68.3591C47.5304 68.3343 47.3817 68.3219 47.2329 68.3219C46.8734 68.3219 46.5325 68.3963 46.2101 68.545C45.9002 68.6814 45.6275 68.8922 45.3919 69.1773C45.1564 69.45 44.9704 69.7909 44.8341 70.2C44.6977 70.6092 44.6295 71.0803 44.6295 71.6133V76.1879H42.5096V66.5739Z" fill="white"/>
<path d="M47.6153 66.5739H49.9398L52.4502 73.7518H52.4874L54.9234 66.5739H57.1363L53.3986 76.7086C53.225 77.1425 53.0514 77.5578 52.8779 77.9545C52.7167 78.3512 52.5122 78.6983 52.2642 78.9958C52.0287 79.3058 51.7311 79.5475 51.3716 79.7211C51.0121 79.907 50.5534 80 49.9955 80C49.4997 80 49.01 79.9628 48.5265 79.8884V78.1032C48.7 78.128 48.8674 78.1528 49.0286 78.1776C49.1897 78.2148 49.3571 78.2334 49.5306 78.2334C49.7786 78.2334 49.9831 78.2024 50.1443 78.1404C50.3055 78.0784 50.4356 77.9855 50.5348 77.8615C50.6464 77.7499 50.7394 77.6136 50.8138 77.4524C50.8881 77.2912 50.9563 77.1053 51.0183 76.8945L51.2601 76.1507L47.6153 66.5739Z" fill="white"/>
<path d="M37.4537 10.9925C36.9715 11.6147 36.039 11.6357 35.5292 11.0359L26.5199 0.436815C26.0249 -0.145606 25.1258 -0.145605 24.6308 0.436816L15.6215 11.036C15.1117 11.6357 14.1792 11.6147 13.697 10.9925L10.4389 6.78849C9.94261 6.14809 8.97545 6.14809 8.47914 6.78849L1.40056 15.9221C0.769221 16.7368 1.34981 17.9213 2.38045 17.9213H48.7702C49.8009 17.9213 50.3815 16.7368 49.7501 15.9221L42.6716 6.78849C42.1752 6.14809 41.2081 6.14809 40.7118 6.78849L37.4537 10.9925Z" fill="white"/>
</svg>
